<svg xmlns="http://www.w3.org/2000/svg" version="1.1" xmlns:xlink="http://www.w3.org/1999/xlink" xmlns:svgjs="http://svgjs.com/svgjs" width="491.6" height="323.7"><svg version="1.0" id="SvgjsSvg1055" xmlns:svg="http://www.w3.org/2000/svg" xmlns="http://www.w3.org/2000/svg" xmlns:xlink="http://www.w3.org/1999/xlink" x="0px" y="0px" viewBox="0 0 491.6 323.7" enable-background="new 0 0 491.6 323.7" xml:space="preserve">
<g id="SvgjsG1054">
	<path id="SvgjsPath1053" fill="#912718" d="M54.9,92.9c0,14.6-11.8,27.4-26.9,27.4C15,120.3,0,114,0,92.4V27.3C0,11.8,11.1,0,27.6,0
		c15.6,0,27.3,11.8,27.3,28.3v6.6h-17v-5.7c0-6.6-4-12.3-10.5-12.3C18.9,17,17,22.8,17,30.8v60.5c0,6.8,2.7,12.1,10.3,12.1
		c4.7,0,10.6-2.7,10.6-12v-5.8h17L54.9,92.9L54.9,92.9z"></path>
	<path id="SvgjsPath1052" fill="#912718" d="M68.6,1h27.3c20.1,0,29.9,11.8,29.9,34.7c0,13.6-3.8,23.6-14.6,29.6l18.3,54h-18L95.7,68.8H85.6
		v50.5h-17L68.6,1L68.6,1z M85.6,53.9h9.6c11.8,0,13.6-6.6,13.6-18.5c0-12-2-18.4-14.5-18.4h-8.8L85.6,53.9L85.6,53.9z"></path>
	<path id="SvgjsPath1051" fill="#912718" d="M139.9,1h17v118.3h-17V1z"></path>
	<path id="SvgjsPath1050" fill="#912718" d="M173.4,1h16.3l21.8,62.7h0.3L233.4,1h16.5v118.3h-17v-72h-0.3l-16.8,50.9h-8.5l-16.6-50.9h-0.3
		v72h-17V1z"></path>
	<path id="SvgjsPath1049" fill="#912718" d="M266.3,1h17v118.3h-17V1z"></path>
	<path id="SvgjsPath1048" fill="#912718" d="M299,1h16.3l25.6,71.3h0.3V1h17v118.3h-16l-25.9-71.1H316v71.1h-17V1z"></path>
	<path id="SvgjsPath1047" fill="#912718" d="M392.3,1h14.1l26.4,118.3h-17l-5-25.4h-23.1l-5,25.4h-17L392.3,1z M399.4,35.1h-0.3L390.8,78
		h17L399.4,35.1z"></path>
	<path id="SvgjsPath1046" fill="#912718" d="M441.1,1h17v101.4h33.6v17h-50.5V1z"></path>
</g>
<g id="SvgjsG1045">
	<path id="SvgjsPath1044" d="M5,136.4h16.3L43,199h0.3l21.6-62.7h16.5v118.3h-17v-72h-0.3l-16.8,50.9h-8.5l-16.6-50.9h-0.3v72h-17L5,136.4
		L5,136.4z"></path>
	<path id="SvgjsPath1043" d="M97.9,136.4h17v118.3h-17V136.4z"></path>
	<path id="SvgjsPath1042" d="M130.6,136.4h16.3l25.6,71.3h0.3v-71.3h17v118.3h-16l-25.9-71.1h-0.3v71.1h-17V136.4z"></path>
	<path id="SvgjsPath1041" d="M205.1,136.4h25.1c19.1,0,29.8,11.5,29.8,30.6v55.3c0,21.9-11.3,32.4-31.2,32.4h-23.6V136.4z M222,238.7h7.8
		c9.5,0,13.1-4.7,13.1-14.8v-57c0-9.3-3.2-14.6-13.1-14.6H222V238.7z"></path>
	<path id="SvgjsPath1040" d="M330.7,170.4h-17v-3.8c0-7.8-3.3-14.3-12-14.3c-9.3,0-11.5,7.5-11.5,15.3c0,9.1,0.8,12.3,9.6,15.8l13,5.2
		c15,5.7,17.8,15.1,17.8,32.4c0,19.9-7.3,34.7-29.3,34.7c-16.5,0-28.9-12.1-28.9-28.1v-6.3h17v5.3c0,6.2,3.3,12.1,12,12.1
		c11.5,0,12.3-6.8,12.3-17.6c0-12.6-1.5-14.6-9.8-18l-12.1-5c-14.6-6-18.4-15.6-18.4-30.4c0-17.9,9.6-32.4,29.1-32.4
		c17,0,28.3,13.6,28.3,26.8V170.4z"></path>
</g>
<g id="SvgjsG1039">
	<g id="SvgjsG1038">
		<path id="SvgjsPath1037" fill="#912718" d="M341.4,135.9h150.3v118.8H341.4V135.9z"></path>
	</g>
</g>
<g id="SvgjsG1036">
	<path id="SvgjsPath1035" fill="#C8534B" d="M3.7,272h8.2c1.4,0,3.1,0.1,4.2,1.4c0.5,0.7,0.6,1.5,0.6,2c0,1.3-0.6,2-1.2,2.3
		c-0.1,0.1-0.6,0.3-0.6,0.3c0.6,0.2,2.4,0.8,2.4,3.3c0,1-0.4,2-1.1,2.6c-1.2,1-2.9,1-4.3,1H3.7V272L3.7,272z M5.5,273.5v3.9h6.7
		c0.6,0,1.2,0,1.7-0.3c0.6-0.3,0.9-1.1,0.9-1.7c0-0.8-0.4-1.3-0.8-1.6c-0.6-0.4-1.4-0.4-2.1-0.4C11.9,273.5,5.5,273.5,5.5,273.5z
		 M5.5,278.9v4.4h7c0.8,0,1.6,0,2.3-0.6c0.7-0.6,0.7-1.3,0.7-1.6c0-1.1-0.6-1.5-0.8-1.7c-0.7-0.5-1.5-0.5-2.3-0.5L5.5,278.9
		L5.5,278.9z"></path>
	<path id="SvgjsPath1034" fill="#C8534B" d="M21.6,272h11.8v1.6h-10v3.8h9.7v1.5h-9.8v4.3h10.5v1.6H21.6L21.6,272L21.6,272z"></path>
	<path id="SvgjsPath1033" fill="#C8534B" d="M37.6,272h1.8v5.2h9.8V272h1.8v12.8h-1.8v-6.1h-9.8v6.1h-1.8V272z"></path>
	<path id="SvgjsPath1032" fill="#C8534B" d="M60.3,272h1.9l6.6,12.8h-2.1l-1.6-3.2h-7.9l-1.6,3.2h-2L60.3,272z M61.6,274.8
		c-0.1-0.2-0.2-0.4-0.3-0.7c-0.1-0.2-0.1-0.3-0.1-0.5c-0.1,0.2-0.1,0.3-0.2,0.5c-0.1,0.2-0.2,0.5-0.3,0.7l-2.7,5.3h6.3L61.6,274.8
		L61.6,274.8z"></path>
	<path id="SvgjsPath1031" fill="#C8534B" d="M80.6,272h2l-6,12.8h-1.8L68.5,272h2l4.5,9.5c0.3,0.7,0.4,0.9,0.6,1.6c0.1-0.6,0.2-0.8,0.5-1.4
		L80.6,272L80.6,272z"></path>
	<path id="SvgjsPath1030" fill="#C8534B" d="M85,272h1.9v12.8H85V272z"></path>
	<path id="SvgjsPath1029" fill="#C8534B" d="M106.1,278.6c0,4.4-3.6,6.6-7.7,6.6c-1.9,0-3.8-0.3-5.3-1.4c-1.3-0.9-2.6-2.5-2.6-5.2
		c0-4.7,3.9-6.9,7.7-6.9C102.8,271.7,106.1,274.4,106.1,278.6L106.1,278.6z M92.4,278.5c0,1,0.3,2.3,1.1,3.3
		c1.2,1.4,3.1,1.9,4.9,1.9c4.7,0,5.9-3,5.9-5.2c0-3.4-2.7-5.2-6.2-5.2C95.4,273.3,92.4,274.7,92.4,278.5z"></path>
	<path id="SvgjsPath1028" fill="#C8534B" d="M109.9,272h8.7c1.1,0,2.5,0,3.6,1c0.4,0.4,1.1,1.2,1.1,2.7c0,3.1-2.6,3.5-3.4,3.6l4.7,5.4h-2.4
		l-4.3-5.1h-6.2v5.1h-1.8L109.9,272L109.9,272z M111.7,273.6v4.6h6.3c1,0,2.3,0,3-1c0.3-0.4,0.4-0.9,0.4-1.4c0-0.5-0.1-1-0.4-1.4
		c-0.6-0.9-1.5-0.9-2.3-0.9L111.7,273.6L111.7,273.6z"></path>
	<path id="SvgjsPath1027" fill="#C8534B" d="M132.1,272h1.9l6.6,12.8h-2.1l-1.6-3.2h-7.9l-1.6,3.2h-2L132.1,272L132.1,272z M133.5,274.8
		c-0.1-0.2-0.2-0.4-0.3-0.7c-0.1-0.2-0.1-0.3-0.1-0.5c-0.1,0.2-0.1,0.3-0.2,0.5c-0.1,0.2-0.2,0.5-0.3,0.7l-2.7,5.3h6.3L133.5,274.8
		L133.5,274.8z"></path>
	<path id="SvgjsPath1026" fill="#C8534B" d="M143.1,272h1.8v11.3h8.5v1.6h-10.3V272z"></path>
	<path id="SvgjsPath1025" fill="#C8534B" d="M168.5,272h1.9l6.6,12.8h-2.1l-1.6-3.2h-7.9l-1.6,3.2h-2L168.5,272L168.5,272z M169.9,274.8
		c-0.1-0.2-0.2-0.4-0.3-0.7c-0.1-0.2-0.1-0.3-0.1-0.5c-0.1,0.2-0.1,0.3-0.2,0.5c-0.1,0.2-0.2,0.5-0.3,0.7l-2.7,5.3h6.3L169.9,274.8
		L169.9,274.8z"></path>
	<path id="SvgjsPath1024" fill="#C8534B" d="M181.3,272l8.6,9.2c0.6,0.7,0.7,0.8,1.4,1.6c-0.1-0.9-0.1-1.1-0.1-1.9V272h1.7v12.8h-1.8
		l-9.1-9.6c-0.5-0.5-0.6-0.7-1-1.2c0.1,0.9,0.1,1.1,0.1,2.2v8.6h-1.7V272L181.3,272L181.3,272z"></path>
	<path id="SvgjsPath1023" fill="#C8534B" d="M202.1,272h1.9l6.6,12.8h-2.1l-1.6-3.2h-7.9l-1.6,3.2h-2L202.1,272z M203.5,274.8
		c-0.1-0.2-0.2-0.4-0.3-0.7c-0.1-0.2-0.1-0.3-0.1-0.5c-0.1,0.2-0.1,0.3-0.2,0.5c-0.1,0.2-0.2,0.5-0.3,0.7l-2.7,5.3h6.3L203.5,274.8
		L203.5,274.8z"></path>
	<path id="SvgjsPath1022" fill="#C8534B" d="M213,272h1.8v11.3h8.5v1.6H213V272z"></path>
	<path id="SvgjsPath1021" fill="#C8534B" d="M223.5,272l4.4,5.6c0.3,0.4,0.4,0.5,0.5,0.9c0.2-0.4,0.2-0.4,0.5-0.8l4.6-5.7h2.3l-6.5,7.9v5
		h-1.8v-5l-6.4-7.8L223.5,272L223.5,272z"></path>
	<path id="SvgjsPath1020" fill="#C8534B" d="M238.1,281.6c0.2,0.2,0.4,0.5,0.9,0.8c1.4,1,3.1,1.3,4.8,1.3c2.8,0,4.4-1,4.4-2.6
		c0-1.8-2-1.9-4.6-2.2c-3.2-0.3-4.3-0.4-5.3-1.3c-0.8-0.7-0.9-1.5-0.9-2.1c0-3.6,4.8-3.7,6-3.7c1.8,0,3.6,0.3,5.1,1.3
		c0.6,0.4,0.9,0.8,1.3,1.3l-1.7,0.7c-0.3-0.3-0.4-0.5-0.7-0.7c-1.1-0.8-2.6-1.1-4-1.1c-1,0-2.3,0.1-3.1,0.5
		c-0.9,0.4-1.1,1.1-1.1,1.6c0,0.4,0.1,0.7,0.4,1c0.4,0.5,1.1,0.6,2.3,0.7c1.2,0.1,2.3,0.2,3.5,0.3c0.5,0.1,1.1,0.1,1.7,0.3
		c1.4,0.3,2.9,1.2,2.9,3.3c0,0.5-0.1,1.3-0.7,2.1c-1,1.4-3,2-5.6,2c-1.1,0-2.4-0.1-3.3-0.4c-2.6-0.7-3.6-2-3.9-2.5L238.1,281.6
		L238.1,281.6z"></path>
	<path id="SvgjsPath1019" fill="#C8534B" d="M253.6,272h1.9v12.8h-1.9V272z"></path>
	<path id="SvgjsPath1018" fill="#C8534B" d="M260.3,281.6c0.2,0.2,0.4,0.5,0.9,0.8c1.4,1,3.1,1.3,4.8,1.3c2.8,0,4.4-1,4.4-2.6
		c0-1.8-2-1.9-4.6-2.2c-3.2-0.3-4.3-0.4-5.3-1.3c-0.8-0.7-0.9-1.5-0.9-2.1c0-3.6,4.8-3.7,6-3.7c1.8,0,3.6,0.3,5.1,1.3
		c0.6,0.4,0.9,0.8,1.3,1.3l-1.7,0.7c-0.3-0.3-0.4-0.5-0.7-0.7c-1.1-0.8-2.6-1.1-4-1.1c-1,0-2.3,0.1-3.1,0.5
		c-0.9,0.4-1.1,1.1-1.1,1.6c0,0.4,0.1,0.7,0.4,1c0.4,0.5,1.1,0.6,2.3,0.7c1.2,0.1,2.3,0.2,3.5,0.3c0.5,0.1,1.1,0.1,1.7,0.3
		c1.4,0.3,2.9,1.2,2.9,3.3c0,0.5-0.1,1.3-0.7,2.1c-1,1.4-3,2-5.6,2c-1.1,0-2.4-0.1-3.3-0.4c-2.6-0.7-3.6-2-3.9-2.5L260.3,281.6
		L260.3,281.6z"></path>
	<path id="SvgjsPath1017" fill="#C8534B" d="M285,272v7.6c0,1.5,0.2,2.4,1.3,3.1c0.5,0.3,1.5,0.9,3.5,0.9c1.2,0,2.3-0.2,3-0.6
		c1.7-0.7,1.7-2.1,1.7-3.1V272h1.8v7.7c0,1.3,0,3.1-2,4.3c-0.9,0.6-2.3,1.1-4.6,1.1c-1.7,0-3.4-0.3-4.7-1.2
		c-1.8-1.3-1.9-2.9-1.9-4.4V272L285,272L285,272z"></path>
	<path id="SvgjsPath1016" fill="#C8534B" d="M303,272l8.6,9.2c0.6,0.7,0.7,0.8,1.4,1.6c-0.1-0.9-0.1-1.1-0.1-1.9V272h1.7v12.8h-1.8
		l-9.1-9.6c-0.5-0.5-0.6-0.7-1-1.2c0.1,0.9,0.1,1.1,0.1,2.2v8.6h-1.7V272L303,272L303,272z"></path>
	<path id="SvgjsPath1015" fill="#C8534B" d="M319.4,272h1.9v12.8h-1.9V272z"></path>
	<path id="SvgjsPath1014" fill="#C8534B" d="M324,272h12.3v1.5H331v11.3h-1.8v-11.3H324L324,272L324,272z"></path>
</g>
<g id="SvgjsG1013">
	<g id="SvgjsG1012">
		<path id="SvgjsPath1011" d="M6.7,311v12.7H3.1v-27h17.3v3.2H6.7v8h12.8v3.1L6.7,311L6.7,311z"></path>
		<path id="SvgjsPath1010" d="M26.5,296.7h11.1c1.6,0,2.5,0,3.6,0.2c2.7,0.5,6,2.5,6,6.7c0,3.3-2.1,5.2-4.1,5.9c1,0.3,5,1.5,5,6.8
			c0,1.3-0.2,4.2-3.1,6c-2.1,1.4-4,1.4-8,1.4H26.5L26.5,296.7L26.5,296.7z M29.9,299.9v8.2h5.6c4.1,0,6,0,7.2-1.8
			c0.5-0.7,0.7-1.6,0.7-2.4c0-3.9-3.7-3.9-5.2-3.9L29.9,299.9L29.9,299.9z M29.9,311.1v9.4h8c1.9,0,2.6,0,3.3-0.2
			c2.3-0.5,3.1-2.2,3.1-4.3c0-3.1-2.3-4.2-2.6-4.3c-1.1-0.5-1.9-0.5-5.2-0.5L29.9,311.1L29.9,311.1z"></path>
		<path id="SvgjsPath1009" d="M59.6,296.7v27H56v-27H59.6z"></path>
	</g>
</g>
<g id="SvgjsG1008">
	<path id="SvgjsPath1007" d="M380.1,284.3c-0.6,0.3-2,0.9-4.4,0.9c-4.7,0-8-2.6-8-6.5c0-1.4,0.4-2.8,1.2-4c0.4-0.5,1-1.1,1.7-1.6
		c1.5-1,3.3-1.4,5.1-1.4c4.6,0,7.9,2.7,7.9,6.7c0,2.7-1.3,4-2.1,4.8l2.5,1.4l-0.9,1.3L380.1,284.3z M370.6,275.3
		c-0.6,0.8-1,1.9-1,3.2c0,3.2,2.3,5.2,6.2,5.2c5.1,0,6.1-3.2,6.1-5.2c0-3.2-2.5-5.3-6.3-5.2C373.4,273.3,371.6,274,370.6,275.3z"></path>
	<path id="SvgjsPath1006" d="M389.3,272v7.6c0,1.5,0.2,2.4,1.3,3.1c0.5,0.3,1.5,0.9,3.5,0.9c1.2,0,2.3-0.2,3-0.6c1.7-0.7,1.7-2.1,1.7-3.1
		V272h1.8v7.7c0,1.3,0,3.1-2,4.3c-0.9,0.6-2.3,1.1-4.6,1.1c-1.7,0-3.4-0.3-4.7-1.2c-1.8-1.3-1.9-2.9-1.9-4.4V272L389.3,272
		L389.3,272z"></path>
	<path id="SvgjsPath1005" d="M409.3,272h1.9l6.6,12.8h-2.1l-1.6-3.2h-7.9l-1.6,3.2h-2L409.3,272L409.3,272z M410.7,274.8
		c-0.1-0.2-0.2-0.4-0.3-0.7c-0.1-0.2-0.1-0.3-0.1-0.5c-0.1,0.2-0.1,0.3-0.2,0.5c-0.1,0.2-0.2,0.5-0.3,0.7l-2.7,5.3h6.3L410.7,274.8
		L410.7,274.8z"></path>
	<path id="SvgjsPath1004" d="M422.2,272l8.6,9.2c0.6,0.7,0.7,0.8,1.4,1.6c-0.1-0.9-0.1-1.1-0.1-1.9V272h1.7v12.8H432l-9.1-9.6
		c-0.5-0.5-0.6-0.7-1-1.2c0.1,0.9,0.1,1.1,0.1,2.2v8.6h-1.7V272L422.2,272L422.2,272z"></path>
	<path id="SvgjsPath1003" d="M436.5,272h12.3v1.5h-5.2v11.3h-1.8v-11.3h-5.2V272z"></path>
	<path id="SvgjsPath1002" d="M451.6,272h1.9v12.8h-1.9V272z"></path>
	<path id="SvgjsPath1001" d="M472.4,281.3c-0.5,0.9-1,1.7-2.3,2.5c-1.6,1-3.6,1.3-5.2,1.3c-5.2,0-7.8-3-7.8-6.8c0-3,1.5-4.4,2.4-5.1
		c0.5-0.4,2.1-1.6,5.4-1.6c0.9,0,3.2,0.1,4.9,1.2c1.4,0.9,2,1.9,2.3,2.5l-2,0.4c-0.3-0.5-0.6-1.1-1.4-1.6c-0.8-0.5-2.2-1-3.8-1
		c-3.1,0-5.9,1.4-5.9,5c0,1.3,0.4,2.6,1.3,3.7c0.9,0.9,2.4,1.6,4.7,1.6c2,0,3.3-0.5,4.1-1.1c0.7-0.5,1.1-1.2,1.3-1.5L472.4,281.3
		L472.4,281.3z"></path>
	<path id="SvgjsPath1000" d="M490.6,278.6c0,4.4-3.6,6.6-7.7,6.6c-1.9,0-3.8-0.3-5.3-1.4c-1.3-0.9-2.6-2.5-2.6-5.2c0-4.7,3.9-6.9,7.7-6.9
		C487.3,271.7,490.6,274.4,490.6,278.6L490.6,278.6z M476.9,278.5c0,1,0.3,2.3,1.1,3.3c1.2,1.4,3.1,1.9,4.9,1.9c4.7,0,5.9-3,5.9-5.2
		c0-3.4-2.7-5.2-6.2-5.2C479.9,273.3,476.9,274.7,476.9,278.5z"></path>
</g>
</svg><style>@media (prefers-color-scheme: light) { :root { filter: none; } }
</style></svg>